<mxfile host="app.diagrams.net" modified="2023-07-10T07:13:30.073Z" agent="Mozilla/5.0 (Macintosh; Intel Mac OS X 10_15_7) AppleWebKit/537.36 (KHTML, like Gecko) Chrome/114.0.0.0 Safari/537.36" etag="YlrE3Rpi-N1a5sb0o11V" version="21.6.1" type="github">
  <diagram name="Page-1" id="pj-p8AEr-xa2ZJZslWT6">
    <mxGraphModel dx="1074" dy="684" grid="1" gridSize="10" guides="1" tooltips="1" connect="1" arrows="1" fold="1" page="1" pageScale="1" pageWidth="827" pageHeight="1169" math="0" shadow="0">
      <root>
        <mxCell id="0" />
        <mxCell id="1" parent="0" />
        <mxCell id="lqEa9rMg1hlEk478QOnr-3" value="" style="shape=image;verticalLabelPosition=bottom;verticalAlign=top;imageAspect=0;aspect=fixed;image=data:image/svg+xml,PHN2ZyBpZD0ic2FwLWludGVsbGlnZW50LXJvYm90aWMtcHJvY2Vzcy1hdXRvbWF0aW9uIiB4bWxucz0iaHR0cDovL3d3dy53My5vcmcvMjAwMC9zdmciIHZpZXdCb3g9IjAgMCA1NiA1NiI+PGRlZnM+PHN0eWxlPi5jbHMtMXtmaWxsOiMwNTNiNzA7fS5jbHMtMntmaWxsOiMwYTZlZDE7fTwvc3R5bGU+PC9kZWZzPjx0aXRsZT5zYXAtaW50ZWxsaWdlbnQtcm9ib3RpYy1wcm9jZXNzLWF1dG9tYXRpb248L3RpdGxlPjxwYXRoIGNsYXNzPSJjbHMtMSIgZD0iTTI4LDE1Ljk2MWM5LjkyNSwwLDE4LDcuNDEsMTgsMTYuNTE4UzM3LjkyNSw0OSwyOCw0OXMtMTgtNy40MS0xOC0xNi41MTgsOC4wNzUtMTYuNTE4LDE4LTE2LjUxOG0wLTNjLTExLjYsMC0yMSw4Ljc0LTIxLDE5LjUyMlMxNi40LDUyLDI4LDUyczIxLTguNzQsMjEtMTkuNTIxUzM5LjYsMTIuOTU3LDI4LDEyLjk1N1oiLz48cGF0aCBjbGFzcz0iY2xzLTIiIGQ9Ik0zNC44MSwyMy4zOTJIMjEuMTM3YTguMTcyLDguMTcyLDAsMCwwLDAsMTYuMzQ0SDM0LjgxYTguMTcyLDguMTcyLDAsMCwwLDAtMTYuMzQ0Wm0wLDEzLjM0MUgyMS4xMzdhNS4xNjksNS4xNjksMCwwLDEsMC0xMC4zMzhIMzQuODFhNS4xNjksNS4xNjksMCwwLDEsMCwxMC4zMzhaIi8+PHBhdGggY2xhc3M9ImNscy0yIiBkPSJNMjIuMTk0LDI4Ljc5MWEyLjU0NywyLjU0NywwLDEsMCwyLjU1LDIuNTQ3QTIuNTQ4LDIuNTQ4LDAsMCwwLDIyLjE5NCwyOC43OTFaIi8+PHBhdGggY2xhc3M9ImNscy0yIiBkPSJNMzMuODQxLDI4Ljc5MWEyLjU0NywyLjU0NywwLDEsMCwyLjU1LDIuNTQ3QTIuNTQ4LDIuNTQ4LDAsMCwwLDMzLjg0MSwyOC43OTFaIi8+PHBhdGggY2xhc3M9ImNscy0yIiBkPSJNMjcuMjE4LDkuODQ4djMuMTQ2Yy4yNjEtLjAwOS41MTgtLjAzNy43ODItLjAzNy4yNDIsMCwuNDc3LjAyNy43MTguMDM0VjkuODYxQTIuOTYsMi45NiwwLDAsMCwzMSw3YTMsMywwLDEsMC02LDBBMi45NjEsMi45NjEsMCwwLDAsMjcuMjE4LDkuODQ4WiIvPjwvc3ZnPg==" vertex="1" parent="1">
          <mxGeometry x="500" y="120" width="56" height="56" as="geometry" />
        </mxCell>
        <mxCell id="lqEa9rMg1hlEk478QOnr-4" value="" style="shape=image;verticalLabelPosition=bottom;verticalAlign=top;imageAspect=0;aspect=fixed;image=data:image/svg+xml,PHN2ZyB4bWxucz0iaHR0cDovL3d3dy53My5vcmcvMjAwMC9zdmciIHZpZXdCb3g9IjAuMDAwNjE5NzgyNTQyMzQ0MTgyNyAtMC4wMDAxNTA2NDQzMzY4MjcwOTkzMiA0Ny45OTk0OTI2NDUyNjM2NyA0MS45NTY0OTcxOTIzODI4MSIgd2lkdGg9IjQ3Ljk5OTQ5MjY0NTI2MzY3IiBoZWlnaHQ9IjQxLjk1NjQ5NzE5MjM4MjgxIj48ZGVmcz48c3R5bGU+LmNscy0xe2ZpbGw6IzU5NTk1OTt9PC9zdHlsZT48L2RlZnM+PHRpdGxlPmhvbWU8L3RpdGxlPjxnIGlkPSJMYXllcl8yIiBkYXRhLW5hbWU9IkxheWVyIDIiPjxnIGlkPSJob21lIj48cGF0aCBjbGFzcz0iY2xzLTEiIGQ9Ik00Ny41MzIsMTkuNTczYTEuNDczLDEuNDczLDAsMCwxLDAsMi4xNTQsMS4zMjEsMS4zMjEsMCwwLDEtMS4wNzcuNDIxLDEuNjYzLDEuNjYzLDAsMCwxLTEuMDc3LS41MTVMMjQuMDI2LDMuNzQ2LDIuNTgsMjEuNjMzYTEuNjMxLDEuNjMxLDAsMCwxLTEuMDMuNTE1LDEuMjY0LDEuMjY0LDAsMCwxLTEuMDMtLjQyMUExLjY1OCwxLjY1OCwwLDAsMSwuMDA1LDIwLjY1YTEuMzE4LDEuMzE4LDAsMCwxLC40MjEtMS4wNzdsMTEuMjM4LTkuNTUycTIuMDU4LTEuNzc5LDQuMDc0LTMuNDY2dDMuNjA1LTMuMDQzUTIwLjkzNiwyLjE1NiwyMi45LjQ2OEExLjUzNywxLjUzNywwLDAsMSwyNC4wMjYsMGExLjQzOCwxLjQzOCwwLDAsMSwxLjAzLjQ2OHExLjk2NywxLjY4NiwzLjU1OSwzLjA0NFQzMi4yMiw2LjU1NXEyLjAxMywxLjY4Niw0LjE2NywzLjQ2NlE0MS4zNTEsMTQuMjM1LDQ3LjUzMiwxOS41NzNaTTYuMDQ1LDIyLjc1N3E0Ljg2Ny0zLjc0NCw4LjgtNi44MzcsMS42ODYtMS4zMDksMy4yNzgtMi41Mjh0Mi45LTIuMnExLjMxMS0uOTgzLDIuMTA3LTEuNTkyYTQuNTE0LDQuNTE0LDAsMCwxLC44OS0uNjA5LDQuNTk0LDQuNTk0LDAsMCwxLC44ODkuNjA5cS44LjYxMSwyLjA2MSwxLjU5MnQyLjg1NiwyLjJxMS41OTIsMS4yMTgsMy4yNzgsMi41MjgsMy44MzgsMy4wOTIsOC45LDYuODM3djE2LjJhMi44MzYsMi44MzYsMCwwLDEtLjg4OSwyLjE1NCwyLjk2NCwyLjk2NCwwLDAsMS0yLjEwNy44NDNIMjcuMDIydi01LjlxMC0yLjI0Ny0uMDQ2LTQuMTJhOC40MTEsOC40MTEsMCwwLDEsLjA0Ni0xLjk2N0gyMS4wMjlhNy45OTIsNy45OTIsMCwwLDAtLjA0NywxLjkycS4wNDcsMS44MjUuMDQ3LDQuMDc0djUuOTkzSDkuMDQyYTIuODg2LDIuODg2LDAsMCwxLTMtM1pNMzkuMDEsMjMuOTc0LDI0LjAyNiwxMi43MzYsOS4wNDIsMjMuOTc0VjM4Ljk1OGg4Ljk5di04Ljk5YTIuOTYyLDIuOTYyLDAsMCwxLC4zNzUtMS41LDMuMDM0LDMuMDM0LDAsMCwxLC44ODktMS4wMzEsMi44LDIuOCwwLDAsMSwxLjczMy0uNDY4aDUuOTkzYTIuOCwyLjgsMCwwLDEsMS43MzMuNDY4LDMuMDQ4LDMuMDQ4LDAsMCwxLC44OSwxLjAzMSw0LjM2NSw0LjM2NSwwLDAsMSwuMzc0LDEuNXY4Ljk5SDM5LjAxWiIvPjwvZz48L2c+PC9zdmc+" vertex="1" parent="1">
          <mxGeometry x="690" y="127" width="48" height="42" as="geometry" />
        </mxCell>
        <mxCell id="lqEa9rMg1hlEk478QOnr-5" value="" style="shape=image;verticalLabelPosition=bottom;verticalAlign=top;imageAspect=0;aspect=fixed;image=data:image/svg+xml,PHN2ZyB4bWxucz0iaHR0cDovL3d3dy53My5vcmcvMjAwMC9zdmciIHZpZXdCb3g9Ii0wLjAwMTM2OTM1MjQ1MjQ1Njk1MTEgLTAuMDAyMjIyMzUwMTAwMDU1MzM3IDM2LjAwMzU5MzQ0NDgyNDIyIDQ4LjAwNDYzODY3MTg3NSIgd2lkdGg9IjM2LjAwMzU5MzQ0NDgyNDIyIiBoZWlnaHQ9IjQ4LjAwNDYzODY3MTg3NSI+PGRlZnM+PHN0eWxlPi5jbHMtMXtmaWxsOiM1OTU5NTk7fTwvc3R5bGU+PC9kZWZzPjx0aXRsZT5kb2N1bWVudDwvdGl0bGU+PGcgaWQ9IkxheWVyXzIiIGRhdGEtbmFtZT0iTGF5ZXIgMiI+PGcgaWQ9ImRvY3VtZW50Ij48cGF0aCBjbGFzcz0iY2xzLTEiIGQ9Ik0zMywwYTIuODg5LDIuODg5LDAsMCwxLDMsM1Y0NWEzLjAyMiwzLjAyMiwwLDAsMS0uOCwyLjE1N0EyLjc2NiwyLjc2NiwwLDAsMSwzMy4wOTQsNDhoLTMwYTMuMDc5LDMuMDc5LDAsMCwxLTIuMi0uODQzQTIuODM4LDIuODM4LDAsMCwxLDAsNDVWMTJMMTIsMFptLjA5NCw0NUwzMywzSDE1djlhMi44ODksMi44ODksMCwwLDEtMywzSDNWNDVaIi8+PC9nPjwvZz48L3N2Zz4=" vertex="1" parent="1">
          <mxGeometry x="696" y="220" width="36" height="48" as="geometry" />
        </mxCell>
        <mxCell id="lqEa9rMg1hlEk478QOnr-6" value="" style="shape=image;verticalLabelPosition=bottom;verticalAlign=top;imageAspect=0;aspect=fixed;image=data:image/svg+xml,PHN2ZyB4bWxucz0iaHR0cDovL3d3dy53My5vcmcvMjAwMC9zdmciIHZpZXdCb3g9Ii0wLjAwMDI0NTc4NTg2NDUzNTcxOTE2IDAgNDguMDAwMjQ0MTQwNjI1IDQ4LjAwMTQ1MzM5OTY1ODIiIHdpZHRoPSI0OC4wMDAyNDQxNDA2MjUiIGhlaWdodD0iNDguMDAxNDUzMzk5NjU4MiI+PGRlZnM+PHN0eWxlPi5jbHMtMXtmaWxsOiM1OTU5NTk7fTwvc3R5bGU+PC9kZWZzPjx0aXRsZT5lbWFpbC1yZWFkPC90aXRsZT48ZyBpZD0iTGF5ZXJfMiIgZGF0YS1uYW1lPSJMYXllciAyIj48ZyBpZD0iZW1haWwtcmVhZCI+PHBhdGggY2xhc3M9ImNscy0xIiBkPSJNNDgsMTMuNDA2VjQ1YTMuMDQxLDMuMDQxLDAsMCwxLTMsM0gzYTIuODM2LDIuODM2LDAsMCwxLTIuMTU2LS44OTFBMi45NjIsMi45NjIsMCwwLDEsMCw0NVYxMy40MDZMMjMuODEzLDBaTTMwLjc1LDI3LjU2Miw0NSwxNC45MDYsMjMuOTA3LDMuNDY5LDMsMTQuOTA2LDE3LjE1NiwyNy41NjIsMTUuNTYyLDI5LjI1LDMsMTcuOTA2VjQzLjVMMjMuOTA3LDI3LjU2Miw0NSw0My4zMTJWMThMMzIuNTMyLDI5LjI1Wk00My41LDQ1LDI0LDMwLjU2Miw0LjUsNDVaIi8+PC9nPjwvZz48L3N2Zz4=" vertex="1" parent="1">
          <mxGeometry x="400" y="40" width="48" height="48" as="geometry" />
        </mxCell>
      </root>
    </mxGraphModel>
  </diagram>
</mxfile>
